solid pudu_test
   facet normal -1.000000e+00 -1.224647e-16 -0.000000e+00
      outer loop
         vertex 5.510911e-17 0.000000e+00 1.000000e+00
         vertex 0.000000e+00 4.500000e-01 1.000000e+00
         vertex 5.510911e-17 0.000000e+00 0.000000e+00
      endloop
   endfacet
   facet normal -1.000000e+00 -1.224647e-16 0.000000e+00
      outer loop
         vertex 5.510911e-17 0.000000e+00 0.000000e+00
         vertex 0.000000e+00 4.500000e-01 1.000000e+00
         vertex 0.000000e+00 4.500000e-01 0.000000e+00
      endloop
   endfacet
   facet normal 0.000000e+00 -1.000000e+00 0.000000e+00
      outer loop
         vertex 5.510911e-17 0.000000e+00 0.000000e+00
         vertex 5.362076e-02 0.000000e+00 7.004088e-01
         vertex 5.510911e-17 0.000000e+00 1.000000e+00
      endloop
   endfacet
   facet normal 0.000000e+00 -1.000000e+00 0.000000e+00
      outer loop
         vertex 5.510911e-17 0.000000e+00 1.000000e+00
         vertex 5.362076e-02 0.000000e+00 7.004088e-01
         vertex 5.362076e-02 0.000000e+00 8.839389e-01
      endloop
   endfacet
   facet normal 0.000000e+00 -1.000000e+00 0.000000e+00
      outer loop
         vertex 5.510911e-17 0.000000e+00 1.000000e+00
         vertex 5.362076e-02 0.000000e+00 8.839389e-01
         vertex 4.500000e-01 0.000000e+00 1.000000e+00
      endloop
   endfacet
   facet normal 0.000000e+00 -1.000000e+00 0.000000e+00
      outer loop
         vertex 5.362076e-02 0.000000e+00 5.793322e-01
         vertex 4.125820e-01 0.000000e+00 5.793322e-01
         vertex 4.125820e-01 0.000000e+00 7.004088e-01
      endloop
   endfacet
   facet normal 0.000000e+00 -1.000000e+00 0.000000e+00
      outer loop
         vertex 5.362076e-02 0.000000e+00 8.839389e-01
         vertex 4.125820e-01 0.000000e+00 8.839389e-01
         vertex 4.500000e-01 0.000000e+00 1.000000e+00
      endloop
   endfacet
   facet normal 0.000000e+00 -1.000000e+00 0.000000e+00
      outer loop
         vertex 4.500000e-01 0.000000e+00 1.000000e+00
         vertex 4.125820e-01 0.000000e+00 8.839389e-01
         vertex 4.125820e-01 0.000000e+00 7.004088e-01
      endloop
   endfacet
   facet normal 0.000000e+00 -1.000000e+00 -0.000000e+00
      outer loop
         vertex 4.500000e-01 0.000000e+00 1.000000e+00
         vertex 4.125820e-01 0.000000e+00 7.004088e-01
         vertex 4.500000e-01 0.000000e+00 0.000000e+00
      endloop
   endfacet
   facet normal 0.000000e+00 -1.000000e+00 0.000000e+00
      outer loop
         vertex 4.500000e-01 0.000000e+00 0.000000e+00
         vertex 4.125820e-01 0.000000e+00 7.004088e-01
         vertex 4.125820e-01 0.000000e+00 5.793322e-01
      endloop
   endfacet
   facet normal 0.000000e+00 -1.000000e+00 0.000000e+00
      outer loop
         vertex 4.500000e-01 0.000000e+00 0.000000e+00
         vertex 4.125820e-01 0.000000e+00 5.793322e-01
         vertex 4.125820e-01 0.000000e+00 3.920798e-01
      endloop
   endfacet
   facet normal -0.000000e+00 -1.000000e+00 0.000000e+00
      outer loop
         vertex 4.125820e-01 0.000000e+00 7.004088e-01
         vertex 5.362076e-02 0.000000e+00 7.004088e-01
         vertex 5.362076e-02 0.000000e+00 5.793322e-01
      endloop
   endfacet
   facet normal -0.000000e+00 -1.000000e+00 0.000000e+00
      outer loop
         vertex 5.362076e-02 0.000000e+00 5.793322e-01
         vertex 5.362076e-02 0.000000e+00 7.004088e-01
         vertex 5.510911e-17 0.000000e+00 0.000000e+00
      endloop
   endfacet
   facet normal 0.000000e+00 -1.000000e+00 -0.000000e+00
      outer loop
         vertex 5.362076e-02 0.000000e+00 5.793322e-01
         vertex 5.510911e-17 0.000000e+00 0.000000e+00
         vertex 5.362076e-02 0.000000e+00 3.920798e-01
      endloop
   endfacet
   facet normal 0.000000e+00 -1.000000e+00 -0.000000e+00
      outer loop
         vertex 5.362076e-02 0.000000e+00 3.920798e-01
         vertex 5.510911e-17 0.000000e+00 0.000000e+00
         vertex 5.362076e-02 0.000000e+00 2.840454e-01
      endloop
   endfacet
   facet normal 0.000000e+00 -1.000000e+00 0.000000e+00
      outer loop
         vertex 5.362076e-02 0.000000e+00 3.920798e-01
         vertex 5.362076e-02 0.000000e+00 2.840454e-01
         vertex 4.125820e-01 0.000000e+00 3.920798e-01
      endloop
   endfacet
   facet normal 0.000000e+00 -1.000000e+00 -0.000000e+00
      outer loop
         vertex 4.125820e-01 0.000000e+00 3.920798e-01
         vertex 5.362076e-02 0.000000e+00 2.840454e-01
         vertex 4.125820e-01 0.000000e+00 2.840454e-01
      endloop
   endfacet
   facet normal 0.000000e+00 -1.000000e+00 0.000000e+00
      outer loop
         vertex 4.125820e-01 0.000000e+00 3.920798e-01
         vertex 4.125820e-01 0.000000e+00 2.840454e-01
         vertex 4.500000e-01 0.000000e+00 0.000000e+00
      endloop
   endfacet
   facet normal 0.000000e+00 -1.000000e+00 0.000000e+00
      outer loop
         vertex 4.500000e-01 0.000000e+00 0.000000e+00
         vertex 4.125820e-01 0.000000e+00 2.840454e-01
         vertex 4.125820e-01 0.000000e+00 6.090914e-02
      endloop
   endfacet
   facet normal 0.000000e+00 -1.000000e+00 0.000000e+00
      outer loop
         vertex 4.500000e-01 0.000000e+00 0.000000e+00
         vertex 4.125820e-01 0.000000e+00 6.090914e-02
         vertex 5.510911e-17 0.000000e+00 0.000000e+00
      endloop
   endfacet
   facet normal 0.000000e+00 -1.000000e+00 0.000000e+00
      outer loop
         vertex 5.510911e-17 0.000000e+00 0.000000e+00
         vertex 4.125820e-01 0.000000e+00 6.090914e-02
         vertex 5.362076e-02 0.000000e+00 6.090914e-02
      endloop
   endfacet
   facet normal 0.000000e+00 -1.000000e+00 0.000000e+00
      outer loop
         vertex 5.510911e-17 0.000000e+00 0.000000e+00
         vertex 5.362076e-02 0.000000e+00 6.090914e-02
         vertex 5.362076e-02 0.000000e+00 2.840454e-01
      endloop
   endfacet
   facet normal 1.000000e+00 0.000000e+00 0.000000e+00
      outer loop
         vertex 4.500000e-01 4.500000e-01 1.000000e+00
         vertex 4.500000e-01 0.000000e+00 1.000000e+00
         vertex 4.500000e-01 4.500000e-01 0.000000e+00
      endloop
   endfacet
   facet normal 1.000000e+00 0.000000e+00 0.000000e+00
      outer loop
         vertex 4.500000e-01 4.500000e-01 0.000000e+00
         vertex 4.500000e-01 0.000000e+00 1.000000e+00
         vertex 4.500000e-01 0.000000e+00 0.000000e+00
      endloop
   endfacet
   facet normal 0.000000e+00 1.000000e+00 0.000000e+00
      outer loop
         vertex 5.362076e-02 4.500000e-01 2.840454e-01
         vertex 5.362076e-02 4.500000e-01 6.090914e-02
         vertex 0.000000e+00 4.500000e-01 0.000000e+00
      endloop
   endfacet
   facet normal 0.000000e+00 1.000000e+00 -0.000000e+00
      outer loop
         vertex 4.500000e-01 4.500000e-01 0.000000e+00
         vertex 4.125820e-01 4.500000e-01 7.004088e-01
         vertex 4.500000e-01 4.500000e-01 1.000000e+00
      endloop
   endfacet
   facet normal 0.000000e+00 1.000000e+00 0.000000e+00
      outer loop
         vertex 4.500000e-01 4.500000e-01 1.000000e+00
         vertex 4.125820e-01 4.500000e-01 7.004088e-01
         vertex 4.125820e-01 4.500000e-01 8.839389e-01
      endloop
   endfacet
   facet normal 0.000000e+00 1.000000e+00 0.000000e+00
      outer loop
         vertex 4.500000e-01 4.500000e-01 1.000000e+00
         vertex 4.125820e-01 4.500000e-01 8.839389e-01
         vertex 0.000000e+00 4.500000e-01 1.000000e+00
      endloop
   endfacet
   facet normal 0.000000e+00 1.000000e+00 0.000000e+00
      outer loop
         vertex 0.000000e+00 4.500000e-01 1.000000e+00
         vertex 4.125820e-01 4.500000e-01 8.839389e-01
         vertex 5.362076e-02 4.500000e-01 8.839389e-01
      endloop
   endfacet
   facet normal 0.000000e+00 1.000000e+00 0.000000e+00
      outer loop
         vertex 0.000000e+00 4.500000e-01 1.000000e+00
         vertex 5.362076e-02 4.500000e-01 8.839389e-01
         vertex 5.362076e-02 4.500000e-01 7.004088e-01
      endloop
   endfacet
   facet normal 0.000000e+00 1.000000e+00 0.000000e+00
      outer loop
         vertex 0.000000e+00 4.500000e-01 0.000000e+00
         vertex 5.362076e-02 4.500000e-01 6.090914e-02
         vertex 4.500000e-01 4.500000e-01 0.000000e+00
      endloop
   endfacet
   facet normal 0.000000e+00 1.000000e+00 0.000000e+00
      outer loop
         vertex 4.500000e-01 4.500000e-01 0.000000e+00
         vertex 5.362076e-02 4.500000e-01 6.090914e-02
         vertex 4.125820e-01 4.500000e-01 6.090914e-02
      endloop
   endfacet
   facet normal 0.000000e+00 1.000000e+00 0.000000e+00
      outer loop
         vertex 4.500000e-01 4.500000e-01 0.000000e+00
         vertex 4.125820e-01 4.500000e-01 6.090914e-02
         vertex 4.125820e-01 4.500000e-01 2.840454e-01
      endloop
   endfacet
   facet normal 0.000000e+00 1.000000e+00 -0.000000e+00
      outer loop
         vertex 5.362076e-02 4.500000e-01 3.920798e-01
         vertex 0.000000e+00 4.500000e-01 1.000000e+00
         vertex 5.362076e-02 4.500000e-01 5.793322e-01
      endloop
   endfacet
   facet normal 0.000000e+00 1.000000e+00 -0.000000e+00
      outer loop
         vertex 5.362076e-02 4.500000e-01 5.793322e-01
         vertex 0.000000e+00 4.500000e-01 1.000000e+00
         vertex 5.362076e-02 4.500000e-01 7.004088e-01
      endloop
   endfacet
   facet normal 0.000000e+00 1.000000e+00 0.000000e+00
      outer loop
         vertex 5.362076e-02 4.500000e-01 5.793322e-01
         vertex 5.362076e-02 4.500000e-01 7.004088e-01
         vertex 4.125820e-01 4.500000e-01 5.793322e-01
      endloop
   endfacet
   facet normal 0.000000e+00 1.000000e+00 0.000000e+00
      outer loop
         vertex 0.000000e+00 4.500000e-01 0.000000e+00
         vertex 0.000000e+00 4.500000e-01 1.000000e+00
         vertex 5.362076e-02 4.500000e-01 2.840454e-01
      endloop
   endfacet
   facet normal 0.000000e+00 1.000000e+00 -0.000000e+00
      outer loop
         vertex 5.362076e-02 4.500000e-01 2.840454e-01
         vertex 0.000000e+00 4.500000e-01 1.000000e+00
         vertex 5.362076e-02 4.500000e-01 3.920798e-01
      endloop
   endfacet
   facet normal 0.000000e+00 1.000000e+00 0.000000e+00
      outer loop
         vertex 5.362076e-02 4.500000e-01 2.840454e-01
         vertex 5.362076e-02 4.500000e-01 3.920798e-01
         vertex 4.125820e-01 4.500000e-01 2.840454e-01
      endloop
   endfacet
   facet normal 0.000000e+00 1.000000e+00 -0.000000e+00
      outer loop
         vertex 4.125820e-01 4.500000e-01 2.840454e-01
         vertex 5.362076e-02 4.500000e-01 3.920798e-01
         vertex 4.125820e-01 4.500000e-01 3.920798e-01
      endloop
   endfacet
   facet normal -0.000000e+00 1.000000e+00 0.000000e+00
      outer loop
         vertex 4.125820e-01 4.500000e-01 2.840454e-01
         vertex 4.125820e-01 4.500000e-01 3.920798e-01
         vertex 4.500000e-01 4.500000e-01 0.000000e+00
      endloop
   endfacet
   facet normal 0.000000e+00 1.000000e+00 0.000000e+00
      outer loop
         vertex 4.500000e-01 4.500000e-01 0.000000e+00
         vertex 4.125820e-01 4.500000e-01 3.920798e-01
         vertex 4.125820e-01 4.500000e-01 5.793322e-01
      endloop
   endfacet
   facet normal 0.000000e+00 1.000000e+00 0.000000e+00
      outer loop
         vertex 4.500000e-01 4.500000e-01 0.000000e+00
         vertex 4.125820e-01 4.500000e-01 5.793322e-01
         vertex 4.125820e-01 4.500000e-01 7.004088e-01
      endloop
   endfacet
   facet normal 0.000000e+00 1.000000e+00 0.000000e+00
      outer loop
         vertex 4.125820e-01 4.500000e-01 7.004088e-01
         vertex 4.125820e-01 4.500000e-01 5.793322e-01
         vertex 5.362076e-02 4.500000e-01 7.004088e-01
      endloop
   endfacet
   facet normal 0.000000e+00 -0.000000e+00 1.000000e+00
      outer loop
         vertex 4.500000e-01 0.000000e+00 1.000000e+00
         vertex 4.500000e-01 4.500000e-01 1.000000e+00
         vertex 5.510911e-17 0.000000e+00 1.000000e+00
      endloop
   endfacet
   facet normal 0.000000e+00 -0.000000e+00 1.000000e+00
      outer loop
         vertex 5.510911e-17 0.000000e+00 1.000000e+00
         vertex 4.500000e-01 4.500000e-01 1.000000e+00
         vertex 0.000000e+00 4.500000e-01 1.000000e+00
      endloop
   endfacet
   facet normal -0.000000e+00 -0.000000e+00 -1.000000e+00
      outer loop
         vertex 4.500000e-01 4.500000e-01 0.000000e+00
         vertex 4.500000e-01 0.000000e+00 0.000000e+00
         vertex 0.000000e+00 4.500000e-01 0.000000e+00
      endloop
   endfacet
   facet normal 0.000000e+00 0.000000e+00 -1.000000e+00
      outer loop
         vertex 0.000000e+00 4.500000e-01 0.000000e+00
         vertex 4.500000e-01 0.000000e+00 0.000000e+00
         vertex 5.510911e-17 0.000000e+00 0.000000e+00
      endloop
   endfacet
   facet normal 1.000000e+00 0.000000e+00 -0.000000e+00
      outer loop
         vertex 5.362076e-02 4.500000e-01 6.090914e-02
         vertex 5.362076e-02 4.500000e-01 2.840454e-01
         vertex 5.362076e-02 0.000000e+00 6.090914e-02
      endloop
   endfacet
   facet normal 1.000000e+00 0.000000e+00 0.000000e+00
      outer loop
         vertex 5.362076e-02 0.000000e+00 6.090914e-02
         vertex 5.362076e-02 4.500000e-01 2.840454e-01
         vertex 5.362076e-02 0.000000e+00 2.840454e-01
      endloop
   endfacet
   facet normal 0.000000e+00 0.000000e+00 -1.000000e+00
      outer loop
         vertex 5.362076e-02 4.500000e-01 2.840454e-01
         vertex 4.125820e-01 4.500000e-01 2.840454e-01
         vertex 5.362076e-02 0.000000e+00 2.840454e-01
      endloop
   endfacet
   facet normal 0.000000e+00 0.000000e+00 -1.000000e+00
      outer loop
         vertex 5.362076e-02 0.000000e+00 2.840454e-01
         vertex 4.125820e-01 4.500000e-01 2.840454e-01
         vertex 4.125820e-01 0.000000e+00 2.840454e-01
      endloop
   endfacet
   facet normal -1.000000e+00 -0.000000e+00 -0.000000e+00
      outer loop
         vertex 4.125820e-01 4.500000e-01 2.840454e-01
         vertex 4.125820e-01 4.500000e-01 6.090914e-02
         vertex 4.125820e-01 0.000000e+00 2.840454e-01
      endloop
   endfacet
   facet normal -1.000000e+00 0.000000e+00 0.000000e+00
      outer loop
         vertex 4.125820e-01 0.000000e+00 2.840454e-01
         vertex 4.125820e-01 4.500000e-01 6.090914e-02
         vertex 4.125820e-01 0.000000e+00 6.090914e-02
      endloop
   endfacet
   facet normal 0.000000e+00 0.000000e+00 1.000000e+00
      outer loop
         vertex 4.125820e-01 4.500000e-01 6.090914e-02
         vertex 5.362076e-02 4.500000e-01 6.090914e-02
         vertex 4.125820e-01 0.000000e+00 6.090914e-02
      endloop
   endfacet
   facet normal 0.000000e+00 0.000000e+00 1.000000e+00
      outer loop
         vertex 4.125820e-01 0.000000e+00 6.090914e-02
         vertex 5.362076e-02 4.500000e-01 6.090914e-02
         vertex 5.362076e-02 0.000000e+00 6.090914e-02
      endloop
   endfacet
   facet normal 1.000000e+00 0.000000e+00 -0.000000e+00
      outer loop
         vertex 5.362076e-02 4.500000e-01 3.920798e-01
         vertex 5.362076e-02 4.500000e-01 5.793322e-01
         vertex 5.362076e-02 0.000000e+00 3.920798e-01
      endloop
   endfacet
   facet normal 1.000000e+00 0.000000e+00 0.000000e+00
      outer loop
         vertex 5.362076e-02 0.000000e+00 3.920798e-01
         vertex 5.362076e-02 4.500000e-01 5.793322e-01
         vertex 5.362076e-02 0.000000e+00 5.793322e-01
      endloop
   endfacet
   facet normal 0.000000e+00 0.000000e+00 -1.000000e+00
      outer loop
         vertex 5.362076e-02 4.500000e-01 5.793322e-01
         vertex 4.125820e-01 4.500000e-01 5.793322e-01
         vertex 5.362076e-02 0.000000e+00 5.793322e-01
      endloop
   endfacet
   facet normal 0.000000e+00 0.000000e+00 -1.000000e+00
      outer loop
         vertex 5.362076e-02 0.000000e+00 5.793322e-01
         vertex 4.125820e-01 4.500000e-01 5.793322e-01
         vertex 4.125820e-01 0.000000e+00 5.793322e-01
      endloop
   endfacet
   facet normal -1.000000e+00 -0.000000e+00 -0.000000e+00
      outer loop
         vertex 4.125820e-01 4.500000e-01 5.793322e-01
         vertex 4.125820e-01 4.500000e-01 3.920798e-01
         vertex 4.125820e-01 0.000000e+00 5.793322e-01
      endloop
   endfacet
   facet normal -1.000000e+00 0.000000e+00 0.000000e+00
      outer loop
         vertex 4.125820e-01 0.000000e+00 5.793322e-01
         vertex 4.125820e-01 4.500000e-01 3.920798e-01
         vertex 4.125820e-01 0.000000e+00 3.920798e-01
      endloop
   endfacet
   facet normal 0.000000e+00 0.000000e+00 1.000000e+00
      outer loop
         vertex 4.125820e-01 4.500000e-01 3.920798e-01
         vertex 5.362076e-02 4.500000e-01 3.920798e-01
         vertex 4.125820e-01 0.000000e+00 3.920798e-01
      endloop
   endfacet
   facet normal 0.000000e+00 0.000000e+00 1.000000e+00
      outer loop
         vertex 4.125820e-01 0.000000e+00 3.920798e-01
         vertex 5.362076e-02 4.500000e-01 3.920798e-01
         vertex 5.362076e-02 0.000000e+00 3.920798e-01
      endloop
   endfacet
   facet normal 1.000000e+00 0.000000e+00 -0.000000e+00
      outer loop
         vertex 5.362076e-02 4.500000e-01 7.004088e-01
         vertex 5.362076e-02 4.500000e-01 8.839389e-01
         vertex 5.362076e-02 0.000000e+00 7.004088e-01
      endloop
   endfacet
   facet normal 1.000000e+00 0.000000e+00 0.000000e+00
      outer loop
         vertex 5.362076e-02 0.000000e+00 7.004088e-01
         vertex 5.362076e-02 4.500000e-01 8.839389e-01
         vertex 5.362076e-02 0.000000e+00 8.839389e-01
      endloop
   endfacet
   facet normal 0.000000e+00 0.000000e+00 -1.000000e+00
      outer loop
         vertex 5.362076e-02 4.500000e-01 8.839389e-01
         vertex 4.125820e-01 4.500000e-01 8.839389e-01
         vertex 5.362076e-02 0.000000e+00 8.839389e-01
      endloop
   endfacet
   facet normal 0.000000e+00 0.000000e+00 -1.000000e+00
      outer loop
         vertex 5.362076e-02 0.000000e+00 8.839389e-01
         vertex 4.125820e-01 4.500000e-01 8.839389e-01
         vertex 4.125820e-01 0.000000e+00 8.839389e-01
      endloop
   endfacet
   facet normal -1.000000e+00 -0.000000e+00 -0.000000e+00
      outer loop
         vertex 4.125820e-01 4.500000e-01 8.839389e-01
         vertex 4.125820e-01 4.500000e-01 7.004088e-01
         vertex 4.125820e-01 0.000000e+00 8.839389e-01
      endloop
   endfacet
   facet normal -1.000000e+00 0.000000e+00 0.000000e+00
      outer loop
         vertex 4.125820e-01 0.000000e+00 8.839389e-01
         vertex 4.125820e-01 4.500000e-01 7.004088e-01
         vertex 4.125820e-01 0.000000e+00 7.004088e-01
      endloop
   endfacet
   facet normal 0.000000e+00 0.000000e+00 1.000000e+00
      outer loop
         vertex 4.125820e-01 4.500000e-01 7.004088e-01
         vertex 5.362076e-02 4.500000e-01 7.004088e-01
         vertex 4.125820e-01 0.000000e+00 7.004088e-01
      endloop
   endfacet
   facet normal 0.000000e+00 0.000000e+00 1.000000e+00
      outer loop
         vertex 4.125820e-01 0.000000e+00 7.004088e-01
         vertex 5.362076e-02 4.500000e-01 7.004088e-01
         vertex 5.362076e-02 0.000000e+00 7.004088e-01
      endloop
   endfacet
endsolid